<?xml version="1.0" standalone="no"?>
<!DOCTYPE svg PUBLIC "-//W3C//DTD SVG 20010904//EN"
 "http://www.w3.org/TR/2001/REC-SVG-20010904/DTD/svg10.dtd">
<svg version="1.0" xmlns="http://www.w3.org/2000/svg"
 width="352.000000pt" height="352.000000pt" viewBox="0 0 352.000000 352.000000"
 preserveAspectRatio="xMidYMid meet">
<metadata>
Created by potrace 1.14, written by Peter Selinger 2001-2017
</metadata>
<g transform="translate(0.000000,352.000000) scale(0.100000,-0.100000)"
fill="#000000" stroke="none">
<path d="M1615 3513 c-506 -60 -940 -438 -1065 -927 -29 -115 -31 -133 -35
-286 -4 -146 0 -179 31 -322 3 -15 5 -30 5 -33 0 -3 13 -40 29 -84 49 -134
130 -282 200 -366 55 -65 154 -165 164 -165 7 0 11 17 10 43 -9 220 -11 214
67 211 37 -1 53 5 96 37 29 22 71 64 94 94 41 54 73 79 189 145 46 26 68 46
87 80 14 25 48 78 75 119 52 79 55 86 61 178 6 80 45 153 109 201 54 42 81 91
109 201 29 114 35 189 17 196 -8 3 -76 -10 -151 -29 -166 -43 -198 -48 -304
-48 -84 0 -114 -9 -191 -58 -21 -14 -25 -13 -43 9 -10 13 -19 36 -19 51 0 26
2 27 63 34 35 3 115 19 178 35 62 16 141 33 174 36 50 6 181 46 311 96 46 18
104 112 104 169 0 37 22 54 61 46 24 -5 38 0 61 19 60 50 133 45 187 -13 33
-35 34 -41 36 -114 1 -43 -2 -78 -6 -78 -5 0 -9 -7 -9 -15 0 -8 -4 -15 -8 -15
-5 0 -13 -10 -19 -22 -8 -19 -18 -23 -54 -23 -38 0 -44 -3 -53 -28 -14 -39 2
-60 56 -73 24 -6 60 -20 79 -29 19 -10 72 -24 119 -31 102 -15 95 -20 181 114
60 92 61 95 50 132 -6 20 -11 42 -11 48 0 19 32 43 49 38 31 -11 -165 169
-235 216 -216 144 -448 216 -701 215 -65 0 -131 -2 -148 -4z"/>
<path d="M2710 3042 c0 -12 19 -26 26 -19 2 2 -2 10 -11 17 -9 8 -15 8 -15 2z"/>
<path d="M2741 2957 c-62 -135 -94 -199 -132 -257 l-40 -63 -107 6 c-59 3
-116 7 -127 10 -11 3 -41 11 -67 17 -58 15 -73 10 -82 -26 -4 -15 -26 -43 -48
-63 -22 -20 -52 -54 -66 -76 -26 -41 -72 -129 -72 -138 0 -4 43 -13 200 -41
14 -2 44 -9 68 -14 23 -5 42 -8 42 -6 0 3 13 -2 30 -11 37 -19 51 -45 55 -104
3 -44 14 -160 20 -211 8 -71 22 -123 58 -218 21 -57 91 -128 159 -163 43 -22
48 -43 16 -60 -13 -7 -24 -11 -25 -10 -2 2 -26 9 -55 16 -29 8 -91 27 -138 43
-76 25 -85 31 -88 55 -2 14 5 43 15 64 20 43 18 81 -7 138 -77 169 -75 162
-89 255 l-6 45 -75 -1 c-41 0 -95 -3 -120 -6 -25 -4 -80 -7 -123 -7 -75 -1
-78 -2 -89 -28 -20 -47 -77 -113 -196 -229 -90 -86 -125 -114 -166 -128 -67
-24 -287 -171 -355 -237 -54 -53 -121 -173 -121 -219 0 -38 190 -147 350 -200
143 -48 239 -64 400 -64 341 -1 638 122 880 364 235 235 358 521 365 850 3
120 -10 258 -30 320 -3 10 -7 27 -9 37 -9 41 -51 153 -83 218 -28 56 -111 196
-117 195 0 0 -12 -24 -25 -53z"/>
<path d="M931 1280 c10 -28 28 -38 42 -23 8 7 -31 53 -44 53 -4 0 -3 -13 2
-30z"/>
<path d="M773 832 l-23 -3 0 -289 c0 -221 3 -289 13 -292 20 -7 249 -2 287 6
51 11 115 51 144 89 63 82 78 232 33 329 -31 69 -86 123 -146 143 -43 14 -249
25 -308 17z m277 -157 c37 -33 52 -75 53 -140 0 -47 -5 -71 -22 -98 -26 -43
-39 -49 -118 -56 l-63 -6 0 163 0 164 64 -4 c46 -3 71 -10 86 -23z"/>
<path d="M1512 831 c-27 -7 -22 4 -156 -336 -52 -131 -93 -241 -91 -244 3 -2
37 -5 76 -6 l72 -2 19 44 19 43 99 0 99 0 12 -40 c7 -22 15 -40 18 -41 3 -1
39 -2 79 -3 l74 -3 -6 30 c-3 16 -12 43 -20 60 -8 18 -56 137 -106 265 -67
171 -96 232 -108 233 -9 0 -26 2 -37 3 -11 1 -30 0 -43 -3z m67 -278 c12 -40
24 -79 27 -88 5 -12 -4 -15 -56 -15 -50 0 -61 3 -57 15 4 8 16 51 28 95 12 44
25 77 29 73 4 -4 17 -40 29 -80z"/>
<path d="M1900 813 c-1 -29 -1 -232 0 -420 l0 -148 65 -1 c39 0 65 4 66 10 1
6 1 103 1 216 0 119 3 194 7 180 5 -14 32 -108 61 -210 29 -102 56 -187 61
-190 5 -3 27 -6 51 -5 l42 0 58 205 c32 113 60 210 62 215 3 6 4 -86 2 -202
-1 -117 0 -214 3 -214 3 -1 34 -2 69 -3 l62 -2 -2 295 -3 294 -88 0 c-49 0
-92 -4 -96 -9 -5 -5 -13 -27 -19 -49 -5 -22 -24 -87 -42 -145 -18 -58 -34
-116 -37 -129 -9 -51 -19 -53 -32 -9 -7 24 -23 77 -35 118 -13 41 -33 108 -45
148 -19 60 -26 72 -44 73 -153 6 -167 5 -167 -18z"/>
<path d="M2637 831 c-6 -2 -14 -7 -17 -12 -7 -10 -5 -553 3 -565 3 -5 36 -10
74 -9 l68 0 0 294 0 293 -58 2 c-31 0 -63 -1 -70 -3z"/>
<path d="M765 144 c-10 -15 -14 -32 -9 -42 4 -9 8 -35 8 -56 1 -29 5 -40 19
-42 17 -2 20 8 19 69 0 15 4 27 9 27 5 0 9 7 9 15 0 8 -5 15 -12 15 -9 0 -9 3
0 12 17 17 15 28 -7 28 -10 0 -26 -12 -36 -26z"/>
<path d="M830 155 c0 -8 9 -15 20 -15 13 0 18 5 14 15 -4 8 -12 15 -20 15 -8
0 -14 -7 -14 -15z"/>
<path d="M900 150 c0 -11 -4 -20 -10 -20 -5 0 -10 -7 -10 -15 0 -8 5 -15 11
-15 6 0 9 -18 8 -47 -3 -42 -1 -48 16 -48 17 0 20 7 20 43 0 23 6 46 12 50 10
7 10 12 -1 27 -8 11 -12 25 -9 32 3 8 -3 13 -16 13 -14 0 -21 -6 -21 -20z"/>
<path d="M1939 163 c-1 -5 -1 -15 0 -24 1 -12 -6 -14 -33 -11 -28 3 -37 -1
-51 -21 -18 -28 -16 -66 4 -91 15 -18 108 -19 114 -1 2 8 1 119 -2 148 -1 4
-8 7 -16 7 -8 0 -16 -3 -16 -7z m1 -98 c0 -17 -36 -39 -50 -30 -14 9 -12 53 3
58 17 6 47 -11 47 -28z"/>
<path d="M2070 86 c0 -79 1 -85 21 -83 17 1 20 7 17 39 -3 43 17 72 32 48 5
-8 10 -31 10 -50 0 -27 4 -36 18 -37 16 -1 18 6 17 54 -3 60 -15 76 -52 70
-19 -3 -23 0 -23 19 0 17 -6 24 -20 24 -18 0 -20 -7 -20 -84z"/>
<path d="M2512 88 c3 -68 6 -82 21 -84 15 -2 17 7 17 82 0 78 -1 84 -20 84
-20 0 -21 -5 -18 -82z"/>
<path d="M2585 160 c-3 -5 -4 -14 -1 -19 3 -5 -1 -12 -10 -15 -14 -5 -14 -8 0
-27 8 -12 12 -28 9 -35 -8 -22 6 -64 22 -64 11 0 15 13 15 50 0 28 5 50 10 50
6 0 10 7 10 15 0 8 -4 15 -10 15 -5 0 -10 9 -10 20 0 21 -24 28 -35 10z"/>
<path d="M2659 168 c-7 -17 -3 -155 5 -160 21 -15 26 -8 26 36 0 25 4 47 8 50
16 10 31 -10 34 -48 2 -28 8 -40 21 -42 14 -2 17 6 17 51 0 59 -16 80 -55 73
-21 -4 -25 -1 -25 18 0 15 -6 24 -15 24 -8 0 -15 -1 -16 -2z"/>
<path d="M828 69 c-3 -63 0 -73 24 -64 11 4 14 21 12 58 -3 69 -2 67 -18 67
-10 0 -15 -17 -18 -61z"/>
<path d="M970 63 c0 -56 2 -64 17 -61 13 2 18 15 21 43 2 37 9 48 29 46 9 -1
10 -6 12 -56 1 -24 6 -35 16 -35 8 0 15 3 16 8 11 106 3 122 -61 121 l-50 -2
0 -64z"/>
<path d="M1128 113 c-28 -32 -30 -58 -7 -86 25 -32 58 -35 90 -6 l24 20 -42
-5 c-24 -4 -44 -2 -48 4 -3 5 2 11 12 11 17 1 43 4 70 7 7 1 10 9 6 20 -11 32
-36 52 -63 52 -15 0 -34 -8 -42 -17z m62 -23 c0 -5 -12 -10 -26 -10 -14 0 -23
4 -19 10 3 6 15 10 26 10 10 0 19 -4 19 -10z"/>
<path d="M1262 118 c-22 -22 -14 -49 18 -61 39 -15 39 -28 -1 -20 -24 4 -31 3
-27 -7 7 -22 33 -33 60 -27 46 12 47 62 2 73 -13 3 -24 10 -24 15 0 5 12 6 26
3 22 -6 25 -4 22 12 -4 23 -57 31 -76 12z"/>
<path d="M1371 116 c-18 -21 -5 -53 24 -60 36 -9 31 -27 -5 -19 -37 7 -41 -13
-5 -29 19 -8 31 -8 50 0 36 16 33 51 -5 65 -37 14 -40 30 -4 21 22 -6 25 -4
22 12 -4 24 -59 31 -77 10z"/>
<path d="M1555 108 c-21 -31 -19 -64 5 -88 16 -16 31 -20 68 -17 l47 3 1 60 2
60 -54 2 c-45 1 -55 -2 -69 -20z m85 -38 c0 -20 -18 -37 -40 -36 -18 1 -26 46
-10 56 19 12 50 -1 50 -20z"/>
<path d="M1707 121 c-2 -3 -3 -31 -3 -61 1 -42 5 -55 16 -55 10 0 16 13 18 43
2 23 7 42 13 42 5 0 12 1 17 3 4 1 9 -18 12 -42 4 -32 10 -45 23 -47 14 -2 17
6 17 51 0 30 -5 57 -13 63 -13 11 -95 14 -100 3z"/>
<path d="M2227 113 c-30 -34 -26 -86 8 -101 38 -17 59 -15 81 9 l19 22 -35 -6
c-19 -4 -42 -2 -50 3 -17 11 -12 12 45 14 34 1 40 4 37 21 -6 31 -32 55 -62
55 -15 0 -34 -8 -43 -17z m63 -23 c0 -5 -12 -10 -26 -10 -14 0 -23 4 -19 10 3
6 15 10 26 10 10 0 19 -4 19 -10z"/>
<path d="M2366 108 c-41 -59 -5 -109 74 -104 l45 3 0 59 0 59 -52 3 c-44 2
-54 -1 -67 -20z m72 -20 c7 -7 12 -15 12 -19 0 -16 -31 -38 -45 -33 -18 7 -20
50 -2 57 19 8 22 8 35 -5z"/>
</g>
</svg>
